<?xml version="1.0" encoding="utf-8"?>
<!-- Generator: Adobe Illustrator 22.0.1, SVG Export Plug-In . SVG Version: 6.00 Build 0)  -->
<svg version="1.1" id="Layer_1" xmlns="http://www.w3.org/2000/svg" xmlns:xlink="http://www.w3.org/1999/xlink" x="0px" y="0px"
	 viewBox="0 0 99 58" style="enable-background:new 0 0 99 58;" xml:space="preserve">
<style type="text/css">
	.st0{fill:#84BD00;}
	.st1{fill:#FFFFFF;}
</style>
<title>Page 1</title>
<desc>Created with Sketch.</desc>
<path class="st0" d="M97.4,44c0,2-2,3.8-3,4.5c-1.5,0-4.5,0.5-4.5,2.5c0,2.5-3,4-6,5.5c-2.3,1.2-3.7,0.2-5.2-0.7
	c-0.4-0.3-0.9-0.6-1.3-0.8c-1.6-0.8-3-4-3.5-5.5l-0.1,0L73.1,52H55.9l-0.7-3H31.9c0,0.2,0,0.3,0,0.5c0,4.1-3.6,7.5-8,7.5
	s-8-3.4-8-7.5c0-0.2,0-0.3,0-0.5h-9c-3.3,0-6-2.7-6-6V16c0-3.3,2.7-6,6-6h60l9-1.5c0.8-0.3,2.9-1,4.5-1s1.7,1.7,1.5,2.5l2,12.5
	l1.5,5.5l8,1.5l2.5,3C96.4,35.5,97.4,42,97.4,44z"/>
<path class="st1" d="M60.7,15.7c-2.2,0-3.9,1.8-3.9,3.9v22.8c0,2.2,1.8,3.9,3.9,3.9h7.2c2.2,0,3.9-1.8,3.9-3.9V19.6
	c0-2.2-1.8-3.9-3.9-3.9H60.7L60.7,15.7z M58.3,19.6c0-1.3,1.1-2.3,2.3-2.3h7.2c1.3,0,2.3,1.1,2.3,2.3v22.8c0,1.3-1.1,2.3-2.3,2.3
	h-7.2c-1.3,0-2.3-1-2.3-2.3V19.6z"/>
<path class="st1" d="M48.1,26.2c0.8,0,1.6-0.3,2.2-0.9c0.6-0.6,0.9-1.4,0.9-2.2v-4.2c0-1.7-1.4-3.1-3.1-3.1h-2.6
	c-0.8,0-1.6,0.3-2.2,0.9c-0.6,0.6-0.9,1.4-0.9,2.2V23c0,0.8,0.3,1.6,0.9,2.2c0.6,0.6,1.4,0.9,2.2,0.9H48.1L48.1,26.2z M49.7,23
	c0,0.9-0.7,1.6-1.6,1.6h-2.6c-0.4,0-0.8-0.2-1.1-0.5c-0.3-0.3-0.5-0.7-0.5-1.1v-4.2c0-0.4,0.2-0.8,0.5-1.1s0.7-0.5,1.1-0.5h2.6
	c0.9,0,1.6,0.7,1.6,1.6V23z"/>
<path class="st1" d="M37,26.2c0.8,0,1.6-0.3,2.2-0.9c0.6-0.6,0.9-1.4,0.9-2.2v-4.2c0-1.7-1.4-3.1-3.1-3.1h-2.6
	c-0.8,0-1.6,0.3-2.2,0.9c-0.6,0.6-0.9,1.4-0.9,2.2V23c0,0.8,0.3,1.6,0.9,2.2c0.6,0.6,1.4,0.9,2.2,0.9H37L37,26.2z M38.6,23
	c0,0.9-0.7,1.6-1.6,1.6h-2.6c-0.4,0-0.8-0.2-1.1-0.5c-0.3-0.3-0.5-0.7-0.5-1.1v-4.2c0-0.4,0.2-0.8,0.5-1.1s0.7-0.5,1.1-0.5H37
	c0.9,0,1.6,0.7,1.6,1.6V23z"/>
<path class="st1" d="M25.9,26.2c0.8,0,1.6-0.3,2.2-0.9c0.6-0.6,0.9-1.4,0.9-2.2v-4.2c0-1.7-1.4-3.1-3.1-3.1h-2.6
	c-0.8,0-1.6,0.3-2.2,0.9c-0.6,0.6-0.9,1.4-0.9,2.2V23c0,0.8,0.3,1.6,0.9,2.2c0.6,0.6,1.4,0.9,2.2,0.9H25.9L25.9,26.2z M27.5,23
	c0,0.9-0.7,1.6-1.6,1.6h-2.6c-0.4,0-0.8-0.2-1.1-0.5c-0.3-0.3-0.5-0.7-0.5-1.1v-4.2c0-0.4,0.2-0.8,0.5-1.1s0.7-0.5,1.1-0.5h2.6
	c0.9,0,1.6,0.7,1.6,1.6V23z"/>
<path class="st1" d="M14.9,26.2c0.8,0,1.6-0.3,2.2-0.9c0.6-0.6,0.9-1.4,0.9-2.2v-4.2c0-1.7-1.4-3.1-3.1-3.1h-2.6
	c-0.8,0-1.6,0.3-2.2,0.9c-0.6,0.6-0.9,1.4-0.9,2.2V23c0,0.8,0.3,1.6,0.9,2.2c0.6,0.6,1.4,0.9,2.2,0.9H14.9L14.9,26.2z M16.4,23
	c0,0.9-0.7,1.6-1.6,1.6h-2.6c-0.4,0-0.8-0.2-1.1-0.5c-0.3-0.3-0.5-0.7-0.5-1.1v-4.2c0-0.4,0.2-0.8,0.5-1.1s0.7-0.5,1.1-0.5h2.6
	c0.9,0,1.6,0.7,1.6,1.6V23z"/>
<path class="st1" d="M82.3,46.2c-1.7,0-3,1.4-3,3c0,1.2,0.7,2.3,1.9,2.8c1.1,0.5,2.4,0.2,3.3-0.7c0.9-0.9,1.1-2.2,0.7-3.3
	C84.6,47,83.5,46.2,82.3,46.2L82.3,46.2z M82.3,50.7c-0.8,0-1.5-0.6-1.5-1.4c0-0.6,0.4-1.1,0.9-1.3c0.5-0.2,1.2-0.1,1.6,0.3
	s0.5,1,0.3,1.6C83.4,50.4,82.9,50.7,82.3,50.7L82.3,50.7z"/>
<path class="st1" d="M23.9,46.2c-1.7,0-3,1.4-3,3c0,1.2,0.7,2.3,1.9,2.8c1.1,0.5,2.4,0.2,3.3-0.7c0.9-0.9,1.1-2.2,0.7-3.3
	C26.2,47,25.1,46.2,23.9,46.2L23.9,46.2z M23.9,50.7c-0.8,0-1.4-0.6-1.4-1.4c0-0.6,0.4-1.1,0.9-1.3c0.5-0.2,1.2-0.1,1.6,0.3
	s0.5,1,0.3,1.6C25,50.4,24.5,50.7,23.9,50.7L23.9,50.7z"/>
<path class="st1" d="M0.5,43.7C0.5,43.7,0.5,43.7,0.5,43.7c0.2,3.3,2.9,5.9,6.2,5.9h8.9c0.2,4.5,3.9,8,8.4,8c4.5,0,8.2-3.5,8.4-8v0
	c8.9,0,17.6,0,21.3,0c0.6,0,1.1,0.5,1.1,1.1c0,1.5,1.2,2.7,2.7,2.7h14c1.5,0,2.7-1.2,2.7-2.7c0,0,0-0.1,0-0.1c0.7,4.2,4.5,7.3,8.8,7
	c4.3-0.3,7.7-3.7,7.9-8h0h0.6c3.4,0,6.1-2.7,6.2-6.1v-9.2c0-1.3-0.4-2.5-1.2-3.6c0,0,0,0,0,0c-0.6-0.7-1.3-1.3-2-1.7
	c0.1-1.3,0.7-1.8,1.8-2.7c0.9-0.7,1.5-1.8,1.5-3v0c0,0,0,0,0,0c0,0,0,0,0-0.1V20c0-0.6-0.2-1.2-0.6-1.6c-0.4-0.4-1-0.7-1.6-0.7
	c-0.6,0-1.2,0.2-1.6,0.7c-0.4,0.4-0.7,1-0.6,1.6v3.3c0,1,0.7,1.9,1.6,2.1c-1,0.7-1.6,1.8-1.9,3c-0.4-0.1-0.8-0.2-1.3-0.3
	c-0.4-0.1-1-0.1-1.7-0.2c-1.2-0.1-3.1-0.4-3.7-0.5C85,26,84.2,19.7,83.8,17l-0.2-1.3c-0.2-1.5-0.4-3-0.5-4.1c0,0,0,0,0,0
	c-0.1-0.5-0.2-1-0.2-1.3c-0.2-1-0.6-1.9-1.3-2.6c-0.7-0.8-1.7-1.2-2.7-1.2c-1,0-2,0.4-2.7,1.1c-0.9,0.8-2.2,1.2-3.4,1.2h0l-66,0
	c-3.4,0-6.1,2.7-6.2,6.1L0.5,43.7z M95.8,23.3c0,0.2-0.1,0.4-0.2,0.5C95.5,24,95.3,24,95.1,24s-0.4-0.1-0.5-0.2
	c-0.1-0.1-0.2-0.3-0.2-0.5V20c0-0.2,0.1-0.4,0.2-0.5c0.1-0.1,0.3-0.2,0.5-0.2s0.4,0.1,0.5,0.2c0.1,0.1,0.2,0.3,0.2,0.5V23.3z
	 M82.3,17.2c0.6,4.9,1.2,8.3,1.9,10.2h-3.9c-1,0-2.1-1.2-2.1-2.7l-0.2-9.3c0-0.9,0.3-1.7,0.9-2.3c0.3-0.3,0.7-0.5,1.2-0.6h1.7
	c0.1,1,0.3,2.2,0.4,3.4L82.3,17.2L82.3,17.2z M95.2,32.1c0.4,0.7,0.6,1.4,0.6,2.2v4.1c-0.7-0.3-1.1-1-1.1-1.7v-3.8
	C94.7,32.6,94.9,32.3,95.2,32.1z M82.3,56.1c-3.8,0-6.8-3.1-6.8-6.8c0-2.8,1.7-5.2,4.2-6.3c2.6-1.1,5.5-0.5,7.4,1.5
	c2,1.9,2.5,4.9,1.5,7.4C87.5,54.4,85,56.1,82.3,56.1L82.3,56.1L82.3,56.1z M23.9,56.1c-3.8,0-6.8-3.1-6.8-6.8c0-2.8,1.7-5.2,4.2-6.3
	c2.5-1.1,5.5-0.5,7.4,1.5c1.9,1.9,2.5,4.9,1.5,7.4C29.1,54.4,26.6,56.1,23.9,56.1L23.9,56.1L23.9,56.1z M6.7,48.1
	c-2.2,0-4.1-1.5-4.5-3.7c2.4-0.4,4.2-2.5,4.2-5v-1.8c0-2.5-1.8-4.6-4.3-5V14.8c0-2.5,2.1-4.6,4.6-4.6l66,0c1.6,0,3.2-0.5,4.5-1.6
	c0.5-0.4,1.1-0.7,1.7-0.7c0.6,0,1.2,0.3,1.6,0.7c0.5,0.6,0.8,1.2,0.9,1.9v0c0,0.1,0,0.2,0.1,0.3h-1.5c-0.9,0-1.7,0.4-2.3,1
	c-0.9,0.9-1.3,2.2-1.3,3.4h0l0.2,9.3c0,2.3,1.8,4.2,3.7,4.2h5c1.4,0.3,2.8,0.5,4.2,0.6h0c0.7,0.1,1.3,0.1,1.7,0.2
	c0.6,0.1,1.1,0.2,1.7,0.4c0.1,0.1,0.2,0.1,0.3,0.1c0.4,0.2,0.7,0.4,1,0.6c-0.6,0.5-1,1.2-1,2v3.8c0,1.6,1.1,3,2.7,3.4v3.4
	c0,2.5-2.1,4.6-4.6,4.6h-0.7c-0.6-4.2-4.2-7.2-8.4-7.2c-4.2,0.1-7.7,3.3-8.2,7.5c-0.9,0.4-1.5,1.4-1.5,2.4c0,0.3-0.1,0.6-0.3,0.8
	c-0.2,0.2-0.5,0.3-0.8,0.3h-14c-0.6,0-1.1-0.5-1.1-1.1c0-0.7-0.3-1.4-0.8-1.9c-0.5-0.5-1.2-0.8-1.9-0.8v0c-3.7,0-12.4,0-21.4,0
	c-0.6-4.1-4.1-7.2-8.3-7.2s-7.7,3.1-8.3,7.2L6.7,48.1L6.7,48.1z M2.1,34.1c1.6,0.4,2.7,1.8,2.7,3.4v1.8c0,1.6-1.1,3.1-2.7,3.4V34.1z
	"/>
<path class="st1" d="M7.6,30.4c0,0.4,0.4,0.8,0.8,0.8H52c0.4,0,0.8-0.4,0.8-0.8s-0.4-0.8-0.8-0.8H8.4C8,29.6,7.6,29.9,7.6,30.4z"/>
<path class="st1" d="M7.6,36.9c0,0.4,0.4,0.8,0.8,0.8H52c0.4,0,0.8-0.3,0.8-0.8c0-0.4-0.4-0.8-0.8-0.8H8.4C8,36.2,7.6,36.5,7.6,36.9
	z"/>
</svg>
