<?xml version="1.0" encoding="utf-8"?>
<!-- Generator: Adobe Illustrator 22.0.1, SVG Export Plug-In . SVG Version: 6.00 Build 0)  -->
<svg version="1.1" id="Layer_1" xmlns="http://www.w3.org/2000/svg" xmlns:xlink="http://www.w3.org/1999/xlink" x="0px" y="0px"
	 viewBox="0 0 255.7 49.8" style="enable-background:new 0 0 255.7 49.8;" xml:space="preserve">
<style type="text/css">
	.st0{fill:#84BD00;}
	.st1{fill:#FFFFFF;}
	.st2{fill:none;}
</style>
<title>Page 1</title>
<desc>Created with Sketch.</desc>
<path class="st0" d="M122.4,8.8V7.6c0-3.7-3.1-6.8-6.8-6.8H6.8C3.1,0.8,0,3.8,0,7.6v1.2v25.1v1.2c0,3.7,3.1,6.8,6.8,6.8H10
	c0.3,3.9,3.6,7.1,7.7,7.1s7.4-3.1,7.7-7.1h6.1c0.3,3.9,3.6,7.1,7.7,7.1s7.4-3.1,7.6-7.1h7.1c0.3,3.9,3.6,7.1,7.7,7.1
	s7.4-3.1,7.6-7.1h6.6c0.3,3.9,3.6,7.1,7.7,7.1s7.4-3.1,7.6-7.1h6.1c0.3,3.9,3.6,7.1,7.7,7.1s7.4-3.1,7.6-7.1h3.2
	c3.8,0,6.8-3,6.8-6.8v-1.2h9.8V8.8H122.4z M125.7,32.4h-3.4V10.3h3.4V32.4z M130.6,32.4h-3.4V10.3h3.4V32.4z"/>
<path class="st1" d="M35.4,23.8H13.6V7h21.8V23.8z M15.2,22.3H34V8.5H15.2V22.3z"/>
<path class="st1" d="M59.7,23.8H38V7h21.8L59.7,23.8z M39.5,22.3h18.8V8.5H39.5V22.3z"/>
<path class="st1" d="M84.1,23.8H62.3V7h21.8V23.8z M63.8,22.3h18.8V8.5H63.8V22.3z"/>
<path class="st1" d="M108.4,23.8H86.6V7h21.8L108.4,23.8z M88.1,22.3h18.8V8.5H88.1V22.3z"/>
<path class="st0" d="M255.4,8.6V7.4c0-3.6-3.1-6.6-6.8-6.6H139.8c-3.8,0-6.8,2.9-6.8,6.6v1.2v24.3v1.2c0,3.6,3.1,6.6,6.8,6.6h3.2
	c0.3,3.8,3.6,6.9,7.7,6.9c4.1,0,7.4-3,7.7-6.9h6.1c0.3,3.8,3.6,6.9,7.7,6.9c4.1,0,7.4-3,7.6-6.9h7.1c0.3,3.8,3.6,6.9,7.7,6.9
	s7.4-3,7.6-6.9h6.6c0.3,3.8,3.6,6.9,7.7,6.9c4.1,0,7.4-3,7.6-6.9h6.1c0.3,3.8,3.6,6.9,7.7,6.9c4.1,0,7.4-3,7.6-6.9h3.2
	c3.8,0,6.8-2.9,6.8-6.6v-1.2L255.4,8.6z"/>
<path class="st1" d="M169.4,23.8h-21.8V7h21.8V23.8z M149.2,22.3H168V8.5h-18.8V22.3z"/>
<path class="st1" d="M193.7,23.8H172V7h21.8L193.7,23.8z M173.5,22.3h18.8V8.5h-18.8V22.3z"/>
<path class="st1" d="M218.1,23.8h-21.8V7h21.8V23.8z M197.8,22.3h18.8V8.5h-18.8V22.3z"/>
<path class="st1" d="M242.4,23.8h-21.8V7h21.8V23.8z M222.1,22.3h18.8V8.5h-18.8V22.3z"/>
<g>
	<rect x="234" y="23.8" class="st2" width="16" height="16"/>
</g>
<path class="st1" d="M122.2,8.4V7.1c0-3.8-3.1-6.8-6.8-6.8H6.7c-3.8,0-6.8,3.1-6.8,6.8v1.3v25.4v1.3c0,3.8,3.1,6.8,6.8,6.8h3.2
	c0.3,4,3.6,7.2,7.7,7.2s7.4-3.2,7.7-7.2h6.1c0.3,4,3.6,7.2,7.7,7.2s7.4-3.2,7.6-7.2h7.1c0.3,4,3.6,7.2,7.7,7.2s7.4-3.2,7.6-7.2h6.6
	c0.3,4,3.6,7.2,7.7,7.2s7.4-3.2,7.6-7.2h6.1c0.3,4,3.6,7.2,7.7,7.2s7.4-3.2,7.6-7.2h3.2c3.8,0,6.8-3.1,6.8-6.8v-1.3h9.8V8.4H122.2z
	 M17.5,47.5c-3.2,0-5.9-2.5-6.2-5.6h12.3C23.3,45,20.7,47.5,17.5,47.5z M38.9,47.5c-3.2,0-5.9-2.5-6.2-5.6H45
	C44.7,45,42.1,47.5,38.9,47.5z M61.3,47.5c-3.2,0-5.9-2.5-6.2-5.6h12.3C67.2,45,64.5,47.5,61.3,47.5z M83.1,47.5
	c-3.2,0-5.9-2.5-6.2-5.6h12.3C89,45,86.4,47.5,83.1,47.5z M104.5,47.5c-3.2,0-5.9-2.5-6.2-5.6h12.3C110.4,45,107.8,47.5,104.5,47.5z
	 M120.7,8.4V35c0,2.9-2.4,5.3-5.3,5.3H6.7c-2.9,0-5.3-2.4-5.3-5.3V7.1c0-2.9,2.4-5.3,5.3-5.3h108.7c2.9,0,5.3,2.4,5.3,5.3V8.4z
	 M125.6,32.2h-3.4V9.9h3.4V32.2z M130.4,32.2H127V9.9h3.4V32.2z"/>
<path class="st1" d="M255.2,8.4V7.1c0-3.8-3.1-6.8-6.8-6.8H139.7c-3.8,0-6.8,3.1-6.8,6.8v1.3H123v25.4h9.8v1.3
	c0,3.8,3.1,6.8,6.8,6.8h3.2c0.3,4,3.6,7.2,7.7,7.2c4.1,0,7.4-3.2,7.7-7.2h6.1c0.3,4,3.6,7.2,7.7,7.2c4.1,0,7.4-3.2,7.6-7.2h7.1
	c0.3,4,3.6,7.2,7.7,7.2c4.1,0,7.4-3.2,7.6-7.2h6.6c0.3,4,3.6,7.2,7.7,7.2c4.1,0,7.4-3.2,7.6-7.2h6.1c0.3,4,3.6,7.2,7.7,7.2
	c4.1,0,7.4-3.2,7.6-7.2h3.2c3.8,0,6.8-3.1,6.8-6.8v-1.3L255.2,8.4z M127.9,32.2h-3.4V9.9h3.4V32.2z M129.4,32.2V9.9h3.4v22.3
	C132.8,32.2,129.4,32.2,129.4,32.2z M150.5,47.5c-3.2,0-5.9-2.5-6.2-5.6h12.3C156.3,45,153.7,47.5,150.5,47.5z M171.9,47.5
	c-3.2,0-5.9-2.5-6.2-5.6H178C177.7,45,175.1,47.5,171.9,47.5z M194.3,47.5c-3.2,0-5.9-2.5-6.2-5.6h12.3
	C200.2,45,197.5,47.5,194.3,47.5z M216.1,47.5c-3.2,0-5.9-2.5-6.2-5.6h12.3C222,45,219.4,47.5,216.1,47.5z M237.5,47.5
	c-3.2,0-5.9-2.5-6.2-5.6h12.3C243.4,45,240.8,47.5,237.5,47.5z M253.7,8.4V35c0,2.9-2.4,5.3-5.3,5.3H139.7c-2.9,0-5.3-2.4-5.3-5.3
	V7.1c0-2.9,2.4-5.3,5.3-5.3h108.7c2.9,0,5.3,2.4,5.3,5.3V8.4z"/>
<rect x="124" y="9.9" class="st0" width="3.3" height="22.6"/>
<rect x="129" y="9.8" class="st0" width="3.3" height="22.6"/>
</svg>
